<svg width="219" height="219" viewBox="0 0 219 219" fill="none" xmlns="http://www.w3.org/2000/svg">
<path d="M109.492 184.36C150.841 184.36 184.36 150.841 184.36 109.492C184.36 68.1443 150.841 34.625 109.492 34.625C68.1443 34.625 34.625 68.1443 34.625 109.492C34.625 150.841 68.1443 184.36 109.492 184.36Z" fill="white"/>
<path d="M109.493 190.444C154.201 190.444 190.444 154.201 190.444 109.493C190.444 64.7858 154.201 28.543 109.493 28.543C64.7858 28.543 28.543 64.7858 28.543 109.493C28.543 154.201 64.7858 190.444 109.493 190.444Z" stroke="white" stroke-opacity="0.1" stroke-width="12.166"/>
<path d="M109.492 12.1641C163.244 12.1641 206.819 55.7392 206.819 109.492C206.819 163.244 163.244 206.819 109.492 206.819C55.7392 206.819 12.1641 163.244 12.1641 109.492C12.1641 55.7392 55.7392 12.1641 109.492 12.1641ZM123.517 114.357C112.67 114.973 105.877 112.486 95.0298 113.098C92.538 113.229 90.0659 113.615 87.6532 114.247C77.4413 116.891 71.5892 123.792 72.0849 133.25C72.7245 145.003 84.5631 152.24 96.4155 151.565C115.719 150.461 129.971 132.915 131.556 113.065C131.361 113.125 131.125 113.185 130.931 113.24C128.503 113.856 126.02 114.23 123.517 114.357ZM146.634 85.0678C145.995 73.3152 134.156 66.0777 122.304 66.7535C103.001 67.8569 88.7479 85.4034 87.1633 105.253C87.3578 105.194 87.5939 105.133 87.7884 105.074C90.216 104.457 92.6997 104.084 95.2021 103.957C106.049 103.35 112.842 105.837 123.689 105.225C126.181 105.093 128.653 104.708 131.066 104.076C141.278 101.427 147.153 94.5256 146.634 85.0678Z" fill="url(#paint0_linear_351_325)"/>
<defs>
<linearGradient id="paint0_linear_351_325" x1="120.103" y1="95.2218" x2="70.3411" y2="221.822" gradientUnits="userSpaceOnUse">
<stop stop-color="#7140FD"/>
<stop offset="1" stop-color="#BD34F8"/>
</linearGradient>
</defs>
</svg>
